<?xml version="1.0" encoding="utf-8"?>
<!-- Generator: Adobe Illustrator 16.0.0, SVG Export Plug-In . SVG Version: 6.00 Build 0)  -->
<!DOCTYPE svg PUBLIC "-//W3C//DTD SVG 1.1//EN" "http://www.w3.org/Graphics/SVG/1.1/DTD/svg11.dtd">
<svg version="1.1" id="Capa_1" xmlns="http://www.w3.org/2000/svg" xmlns:xlink="http://www.w3.org/1999/xlink" x="0px" y="0px"
	 width="790px" height="904.5px" viewBox="0 0 790 904.5" enable-background="new 0 0 790 904.5" xml:space="preserve">
<g>
	
		<rect x="99.439" y="305.011" transform="matrix(-0.7071 0.7071 -0.7071 -0.7071 906.3555 259.5963)" fill="#FFFFFF" stroke="#FFFFFF" stroke-width="22" stroke-miterlimit="10" width="599.95" height="24.999"/>
	
		<rect x="99.439" y="305.016" transform="matrix(0.7071 0.7071 -0.7071 0.7071 341.5033 -189.4301)" fill="#FFFFFF" stroke="#FFFFFF" stroke-width="22" stroke-miterlimit="10" width="599.95" height="25"/>
</g>
<g>
	<path fill="#FFFFFF" d="M122.218,781.728c-10.334-5.932-18.269-14.366-23.8-25.301c-5.535-10.931-8.3-23.665-8.3-38.199
		c0-14.531,2.766-27.231,8.3-38.101c5.531-10.865,13.465-19.266,23.8-25.2c10.332-5.931,22.431-8.899,36.3-8.899
		c9.465,0,18.4,1.469,26.8,4.399c8.4,2.935,15.466,7.069,21.2,12.4l-8.6,18.8c-6.4-5.065-12.734-8.766-19-11.1
		c-6.269-2.331-12.935-3.5-20-3.5c-13.6,0-24.1,4.399-31.5,13.2c-7.4,8.8-11.1,21.469-11.1,38c0,16.668,3.7,29.399,11.1,38.199
		c7.4,8.801,17.9,13.2,31.5,13.2c7.065,0,13.731-1.165,20-3.5c6.266-2.331,12.6-6.031,19-11.1l8.6,18.8
		c-5.734,5.334-12.8,9.469-21.2,12.4c-8.4,2.931-17.334,4.399-26.8,4.399C144.649,790.627,132.55,787.661,122.218,781.728z"/>
	<path fill="#FFFFFF" d="M230.117,647.827h25.8v119.8h65.8v21.2h-91.6V647.827z"/>
	<path fill="#FFFFFF" d="M360.617,781.827c-10.068-5.865-17.834-14.266-23.3-25.2c-5.469-10.931-8.2-23.731-8.2-38.399
		c0-14.666,2.7-27.432,8.1-38.301c5.4-10.865,13.166-19.23,23.3-25.1c10.131-5.865,22.065-8.8,35.799-8.8
		c13.732,0,25.631,2.935,35.701,8.8c10.064,5.869,17.799,14.234,23.199,25.1c5.4,10.869,8.1,23.635,8.1,38.301
		c0,14.668-2.734,27.469-8.199,38.399c-5.469,10.935-13.234,19.335-23.301,25.2c-10.068,5.869-21.9,8.8-35.5,8.8
		C382.583,790.627,370.683,787.696,360.617,781.827z M426.617,756.627c7.266-8.931,10.9-21.731,10.9-38.399
		c0-16.666-3.635-29.432-10.9-38.301c-7.27-8.865-17.369-13.3-30.301-13.3c-13.068,0-23.234,4.435-30.5,13.3
		c-7.269,8.869-10.9,21.635-10.9,38.301c0,16.668,3.631,29.469,10.9,38.399c7.266,8.935,17.431,13.4,30.5,13.4
		C409.248,770.027,419.348,765.562,426.617,756.627z"/>
	<path fill="#FFFFFF" d="M506.715,786.228c-9.469-2.932-17.469-7.066-24-12.4l8.601-18.8c6.8,5.2,13.966,9,21.5,11.399
		c7.531,2.4,15.7,3.601,24.5,3.601c9.731,0,17.231-1.7,22.5-5.101c5.266-3.399,7.899-8.165,7.899-14.3c0-5.331-2.434-9.399-7.3-12.2
		c-4.868-2.8-12.969-5.465-24.3-8c-11.734-2.531-21.269-5.465-28.6-8.8c-7.335-3.331-12.869-7.6-16.601-12.8
		c-3.734-5.2-5.6-11.8-5.6-19.8c0-8.266,2.266-15.666,6.8-22.2c4.531-6.531,10.932-11.631,19.2-15.3c8.266-3.666,17.8-5.5,28.6-5.5
		c9.866,0,19.266,1.5,28.2,4.5c8.932,3,16.266,7.1,22,12.3l-8.6,18.8c-12.535-10-26.4-15-41.601-15c-9.068,0-16.234,1.835-21.5,5.5
		c-5.269,3.669-7.899,8.769-7.899,15.3c0,5.469,2.331,9.669,7,12.601c4.665,2.935,12.6,5.669,23.8,8.2
		c11.865,2.668,21.5,5.634,28.899,8.899c7.4,3.269,13.066,7.435,17,12.5c3.932,5.069,5.9,11.469,5.9,19.2
		c0,8.4-2.234,15.769-6.7,22.1c-4.469,6.335-10.935,11.2-19.399,14.601c-8.469,3.399-18.435,5.1-29.9,5.1
		C526.315,790.627,516.181,789.158,506.715,786.228z"/>
	<path fill="#FFFFFF" d="M616.912,647.827h94.399v20.4h-69.199v38.8h65.199v20.2h-65.199v41.199h69.199v20.4h-94.399V647.827z"/>
</g>
</svg>
