<?xml version="1.0" encoding="utf-8"?>
<!-- Generator: Adobe Illustrator 16.0.0, SVG Export Plug-In . SVG Version: 6.00 Build 0)  -->
<!DOCTYPE svg PUBLIC "-//W3C//DTD SVG 1.1//EN" "http://www.w3.org/Graphics/SVG/1.1/DTD/svg11.dtd">
<svg version="1.1" id="Capa_1" xmlns="http://www.w3.org/2000/svg" xmlns:xlink="http://www.w3.org/1999/xlink" x="0px" y="0px"
	 width="790px" height="904.5px" viewBox="0 0 790 904.5" enable-background="new 0 0 790 904.5" xml:space="preserve">
<g>
	<rect x="94.839" y="94.946" fill="#FFFFFF" width="599.954" height="46"/>
</g>
<g>
	<rect x="94.839" y="270" fill="#FFFFFF" width="599.954" height="46"/>
</g>
<g>
	<rect x="94.839" y="434.152" fill="#FFFFFF" width="599.954" height="46"/>
</g>
<g>
	<g>
		<path d="M1347.438,479.993l367.68-0.002c12.945,0.001,23.439-10.493,23.438-23.438c-0.001-12.944-10.494-23.439-23.438-23.438
			l-367.68,0.001V65.436c0-12.945-10.494-23.439-23.438-23.438c-12.943,0-23.438,10.494-23.438,23.438l0.001,367.678l-367.682,0.001
			c-12.943,0-23.438,10.494-23.438,23.438c0,6.472,2.625,12.331,6.866,16.572c4.242,4.242,10.101,6.866,16.573,6.866h367.678
			v367.679c0,6.472,2.624,12.33,6.866,16.572s10.1,6.865,16.572,6.866c12.946,0,23.439-10.493,23.438-23.438V479.993z"/>
	</g>
</g>
<g>
	<path fill="#FFFFFF" d="M256.019,649.331v141h-22.8v-93.2l-37.2,70.4h-17.2l-37.399-69.4l0.199,92.2h-22.8v-141h20.4l48.399,92.2
		l48.2-92.2H256.019z"/>
	<path fill="#FFFFFF" d="M286.617,649.331h94.4v20.4h-69.2v38.8h65.2v20.2h-65.2v41.199h69.2v20.4h-94.4V649.331z"/>
	<path fill="#FFFFFF" d="M523.414,649.331v141h-19.4l-75.6-98.4v98.4h-24v-141h19.2l75.6,98.2v-98.2H523.414z"/>
	<path fill="#FFFFFF" d="M568.013,777.131c-10-10-15-24.6-15-43.8v-84h25.199v85.4c0,12.134,2.866,21.3,8.601,27.5
		c5.731,6.199,14.131,9.3,25.2,9.3c10.931,0,19.266-3.132,25-9.4c5.73-6.266,8.6-15.399,8.6-27.399v-85.4h25.2v84
		c0,19.068-5,33.635-15,43.7c-10,10.068-24.601,15.1-43.8,15.1C592.678,792.131,578.013,787.131,568.013,777.131z"/>
</g>
</svg>
